#!OML:ASF I:\Actors\actors\Patient Classification 1\Patient 1\Session 1\Subject1.ASF
:FULLY-SPECIFIED
:DEGREES
433
root 0.326077 17.6826 9.10131 13.1899 -1.14437 -7.90986
lowerback 6.54136 3.58903 4.62586
upperback -10.2316 5.57613 0.0239856
thorax -14.5362 2.13885 -3.58586
lowerneck -14.9079 -1.2208 3.91312
upperneck 27.8394 -3.72093 3.02556
head 11.5595 -0.862999 -0.0764359
rclavicle -1.73937e-014 -1.98785e-014
rhumerus -9.49992 15.5069 -88.3957
rradius 113.271
rwrist 18.7556
rhand 42.3853 -55.7547
rfingers 7.12502
rthumb 64.3406 -63.9926
lclavicle -1.73937e-014 -1.98785e-014
lhumerus -14.4672 -8.40956 78.9305
lradius 118.558
lwrist -3.22113
lhand 59.9066 15.7498
lfingers 7.12502
lthumb 74.5802 -16.3327
rfemur -6.64285 20.8548 21.9088
rtibia 3.77493
rfoot -14.828 -27.4176
rtoes -1.01124
lfemur -3.03936 -30.8634 -8.7167
ltibia -0.65103
lfoot -17.5828 43.9938
ltoes 8.35446
434
root 0.348725 17.6846 9.10216 13.6328 -2.58237 -8.13153
lowerback 6.34675 3.83512 4.94377
upperback -10.2742 5.92051 -0.149189
thorax -14.384 2.26122 -3.99407
lowerneck -15.1689 -0.961394 4.15331
upperneck 27.7884 -3.37569 2.83492
head 11.5859 -0.706025 -0.141065
rclavicle 3.29983e-014 1.90833e-014
rhumerus -9.46248 16.8039 -88.954
rradius 112.715
rwrist 18.7185
rhand 41.9451 -55.204
rfingers 7.12502
rthumb 63.9866 -63.9825
lclavicle 3.29983e-014 1.90833e-014
lhumerus -15.0779 -8.3005 79.9837
lradius 118.693
lwrist -3.18095
lhand 60.3955 15.6541
lfingers 7.12502
lthumb 74.6822 -18.1677
rfemur -7.14389 21.5891 21.712
rtibia 3.56715
rfoot -14.3645 -26.9183
rtoes -1.67217
lfemur -2.75338 -30.7553 -8.79425
ltibia -1.03541
lfoot -18.4761 45.0778
ltoes 9.64364
435
root 0.365191 17.6891 9.09964 14.0934 -3.67224 -8.45763
lowerback 5.73358 3.93463 4.93792
upperback -10.0348 6.02115 0.0410792
thorax -13.7176 2.35992 -3.72641
lowerneck -15.5202 -0.56854 4.28214
upperneck 27.4787 -2.73689 2.42435
head 11.5293 -0.464178 -0.226174
rclavicle -1.27719e-014 -2.14687e-014
rhumerus -8.99595 18.1329 -89.0834
rradius 112.088
rwrist 18.1505
rhand 41.8227 -54.732
rfingers 7.12502
rthumb 63.8878 -63.6583
lclavicle -1.27719e-014 -2.14687e-014
lhumerus -15.3108 -7.63326 80.9222
lradius 118.811
lwrist -2.91867
lhand 60.515 15.4554
lfingers 7.12502
lthumb 74.705 -18.7954
rfemur -7.61627 22.4163 21.6943
rtibia 3.32831
rfoot -13.9806 -26.7314
rtoes -1.95675
lfemur -2.6942 -30.7675 -8.57201
ltibia -1.30764
lfoot -19.4845 45.979
ltoes 10.8867
436
root 0.375861 17.6913 9.09915 14.375 -4.41491 -8.4757
lowerback 5.76083 4.04741 4.8363
upperback -10.1577 6.15432 -0.0845281
thorax -13.8645 2.41653 -3.83878
lowerneck -15.5194 -0.371943 4.44992
upperneck 27.3853 -2.45702 2.2825
head 11.4916 -0.341841 -0.267068
rclavicle -1.49089e-014 2.46493e-014
rhumerus -9.60098 18.23 -89.5372
rradius 111.679
rwrist 17.2897
rhand 41.9793 -54.5266
rfingers 7.12502
rthumb 64.0142 -63.2637
lclavicle -1.49089e-014 2.46493e-014
lhumerus -15.9889 -7.60578 81.3748
lradius 118.983
lwrist -2.57701
lhand 60.7595 15.6793
lfingers 7.12502
lthumb 74.7487 -19.4524
rfemur -7.87005 23.0502 21.4436
rtibia 3.09536
rfoot -13.7521 -26.6739
rtoes -2.08009
lfemur -2.68013 -30.7126 -8.68271
ltibia -1.38205
lfoot -20.3723 46.4395
ltoes 12.0126
437
root 0.380193 17.6922 9.1048 14.5617 -4.68099 -8.52706
lowerback 5.683 4.06071 4.66656
upperback -10.2193 6.1422 -0.136536
thorax -13.9 2.42304 -3.79736
lowerneck -15.6037 -0.221804 4.5369
upperneck 27.3116 -2.25984 2.25081
head 11.4815 -0.249396 -0.265784
rclavicle 5.36719e-015 -1.43125e-014
rhumerus -10.4725 17.7161 -89.7725
rradius 111.474
rwrist 16.1006
rhand 41.025 -55.0082
rfingers 7.12502
rthumb 63.2392 -64.8686
lclavicle 5.36719e-015 -1.43125e-014
lhumerus -16.4133 -7.52142 81.462
lradius 119.118
lwrist -2.44328
lhand 61.1233 15.9399
lfingers 7.12502
lthumb 74.8069 -20.5115
rfemur -7.97288 23.422 21.3788
rtibia 2.9382
rfoot -13.6471 -26.7545
rtoes -2.32885
lfemur -2.75331 -30.4986 -8.62559
ltibia -1.4154
lfoot -20.6595 46.4665
ltoes 12.3521
438
root 0.37807 17.6935 9.11109 14.6574 -4.41403 -8.58651
lowerback 5.50375 3.92815 4.35526
upperback -10.1918 5.91602 -0.0833475
thorax -13.808 2.3574 -3.51525
lowerneck -15.784 -0.0733532 4.58842
upperneck 27.2243 -2.06786 2.24245
head 11.4863 -0.15933 -0.250813
rclavicle 1.82882e-014 2.3059e-014
rhumerus -11.4329 16.0064 -89.5367
rradius 111.56
rwrist 16.1017
rhand 43.4758 -53.3563
rfingers 7.12502
rthumb 65.2062 -60.1862
lclavicle 1.82882e-014 2.3059e-014
lhumerus -16.5014 -7.21606 81.2438
lradius 119.163
lwrist -2.53982
lhand 61.1973 15.4419
lfingers 7.12502
lthumb 74.8178 -21.2791
rfemur -7.94356 23.5497 21.478
rtibia 2.84965
rfoot -13.7219 -27.033
rtoes -2.36621
lfemur -2.94655 -30.3467 -8.39681
ltibia -1.43411
lfoot -20.4041 46.1971
ltoes 12.0491
